# xmcd CD database file generated by Grip 2.6
# 
# Track frame offsets:
#       150
#       11117
#       23960
#       36177
#       46085
#       58585
#       70982
#       82515
#       93342
#       105385
#       116422
#       129120
#       139862
#       150777
#       162165
#       174775
# 
# Disc length: 2509 seconds
# 
# Revision: 3
# Processed by: cddbd v1.4b41PL1 Copyright (c) Steve Scherf et al.
# Submitted via: Grip 2.6
# 
DISCID=b009cb10
DTITLE=Roy Orbison - 16 Greatest Hits
DYEAR=1900
DGENRE=
TTITLE0=Only The Lonely
TTITLE1=Blue Angel
TTITLE2=I'm Hurtin'
TTITLE3=Running Scared
TTITLE4=Crying
TTITLE5=Candy Man
TTITLE6=Dream Baby (How Long Must I Dream)
TTITLE7=The Crowd
TTITLE8=Leah
TTITLE9=Working For The Man
TTITLE10=In Dreams
TTITLE11=Falling
TTITLE12=Mean Woman Blues
TTITLE13=Blue Bayou
TTITLE14=It's Over
TTITLE15=Oh, Pretty Woman
EXTD=
EXTT0=
EXTT1=
EXTT2=
EXTT3=
EXTT4=
EXTT5=
EXTT6=
EXTT7=
EXTT8=
EXTT9=
EXTT10=
EXTT11=
EXTT12=
EXTT13=
EXTT14=
EXTT15=
PLAYORDER=
